<?xml version="1.0" encoding="utf-8"?>
<!-- Generator: Adobe Illustrator 27.8.1, SVG Export Plug-In . SVG Version: 6.00 Build 0)  -->
<svg version="1.1" id="Lag_1" xmlns="http://www.w3.org/2000/svg" xmlns:xlink="http://www.w3.org/1999/xlink" x="0px" y="0px"
	 viewBox="0 0 595.28 841.89" style="enable-background:new 0 0 595.28 841.89;" xml:space="preserve">
<style type="text/css">
	.st0{fill:#EDAC44;}
	.st1{fill:#FFFFFF;}
	.st2{font-family:'Arial-Black';}
	.st3{font-size:8.2057px;}
	.st4{fill:#D19EC8;}
	.st5{font-size:9.3082px;}
	.st6{fill:none;}
</style>
<g>
	<g>
		<g>
			<g>
				<path class="st0" d="M197.21,203.42c1.1-0.94,1.68-1.35,2.87-2.06c0.47,2.33,0.71,3.59,1.22,6.26c0.46-2.85,0.68-4.36,1.12-7.46
					c1.24-0.54,1.88-0.75,3.17-1.06c0.05,5.19,0.07,7.78,0.12,12.97c-0.79,0-1.18,0-1.97-0.01c-0.04-3.77-0.06-5.66-0.1-9.44
					c-0.56,3.94-0.84,5.85-1.41,9.43c-0.71,0-1.07,0-1.78-0.01c-0.62-3.32-0.92-4.86-1.48-7.62c-0.02,3.05-0.02,4.57-0.04,7.61
					c-0.79,0-1.18,0-1.97,0C197.06,208.6,197.11,206.87,197.21,203.42z"/>
				<path class="st0" d="M212.05,209.89c-1.1-0.02-1.65-0.03-2.75-0.03c-0.15,0.89-0.23,1.34-0.38,2.23c-0.98,0-1.47-0.01-2.46-0.01
					c1.13-5.25,1.71-8.05,2.91-13.49c1.09-0.04,1.63-0.02,2.71,0.11c1.18,5.5,1.74,8.28,2.85,13.42c-1.01,0-1.51-0.01-2.52-0.01
					C212.28,211.22,212.2,210.78,212.05,209.89z M211.56,206.97c-0.34-1.95-0.51-2.93-0.86-4.88c-0.35,1.93-0.53,2.9-0.87,4.85
					C210.52,206.94,210.87,206.94,211.56,206.97z"/>
				<path class="st0" d="M215.89,199.52c1.43,0.47,2.14,0.78,3.49,1.54c0.67,0.37,1.2,0.85,1.59,1.36c0.4,0.51,0.73,1.08,0.99,1.68
					c0.26,0.6,0.46,1.2,0.59,1.81c0.13,0.61,0.21,1.2,0.22,1.8c0.03,0.94-0.04,1.64-0.21,2.14c-0.17,0.5-0.42,0.92-0.75,1.27
					c-0.33,0.36-0.69,0.61-1.07,0.74c-0.53,0.17-1,0.28-1.43,0.28c-1.43,0-2.15-0.01-3.58-0.01
					C215.8,207.08,215.83,204.56,215.89,199.52z M218.24,203.11c-0.02,2.55-0.04,3.82-0.06,6.37c0.23,0.03,0.35,0.04,0.58,0.07
					c0.5,0.06,0.85,0.02,1.06-0.1c0.21-0.13,0.37-0.36,0.49-0.72c0.12-0.35,0.17-0.94,0.17-1.77c0-1.1-0.13-1.91-0.39-2.44
					s-0.68-0.94-1.28-1.18C218.59,203.24,218.47,203.2,218.24,203.11z"/>
			</g>
		</g>
		<text transform="matrix(1 0 0 1 200.55 219.0239)" class="st1 st2 st3">FOR</text>
		<g>
			<g>
				<path class="st0" d="M196.93,221.02c0.7,0,1.05,0,1.75,0c0.18,1.68,0.26,2.58,0.42,4.5c0.36-1.68,0.55-2.59,0.92-4.5
					c0.7,0,1.05,0,1.75,0c-0.18,3.56-0.27,5.35-0.44,8.91c-0.44-0.24-0.66-0.36-1.09-0.63c0.14-2.52,0.2-3.79,0.34-6.31
					c-0.47,2.48-0.71,3.64-1.16,5.77c-0.38-0.27-0.57-0.41-0.95-0.7c-0.2-2.39-0.3-3.5-0.52-5.52c-0.11,1.95-0.16,2.92-0.27,4.87
					c-0.41-0.35-0.61-0.53-1-0.91C196.77,224.31,196.82,223.21,196.93,221.02z"/>
				<path class="st0" d="M202.67,221.01c0.53,0,0.8,0,1.33,0c-0.15,3.99-0.23,5.98-0.38,9.97c-0.56-0.21-0.83-0.33-1.38-0.59
					C202.41,226.64,202.5,224.76,202.67,221.01z"/>
				<path class="st0" d="M204.96,221.01c0.5,0,0.74,0,1.24,0c0.59,2.36,0.89,3.6,1.53,6.09c0.03-2.44,0.05-3.66,0.09-6.1
					c0.5,0,0.75,0,1.25,0c-0.03,4.46-0.04,6.69-0.06,11.15c-0.54-0.03-0.81-0.06-1.35-0.13c-0.66-2.51-0.97-3.77-1.58-6.19
					c-0.06,2.35-0.09,3.52-0.15,5.87c-0.53-0.13-0.8-0.2-1.32-0.37C204.76,227.2,204.83,225.14,204.96,221.01z"/>
				<path class="st0" d="M209.98,220.99c0.79,0,1.19,0,1.98-0.01c0.39,0,0.71,0.13,0.95,0.4c0.25,0.27,0.45,0.64,0.62,1.13
					s0.3,1.06,0.39,1.7c0.09,0.65,0.14,1.33,0.16,2.06c0.03,1.14,0,2.03-0.09,2.68s-0.23,1.21-0.42,1.68
					c-0.19,0.47-0.39,0.8-0.62,0.98c-0.31,0.25-0.59,0.39-0.84,0.42c-0.85,0.1-1.27,0.13-2.13,0.13
					C209.98,227.7,209.98,225.46,209.98,220.99z M211.33,223.51c0.02,2.43,0.04,3.65,0.06,6.08c0.14-0.01,0.21-0.01,0.34-0.03
					c0.29-0.02,0.5-0.13,0.62-0.3s0.21-0.46,0.28-0.86c0.06-0.4,0.09-1.04,0.07-1.91c-0.02-1.16-0.11-1.95-0.27-2.37
					s-0.41-0.63-0.76-0.62C211.54,223.5,211.47,223.5,211.33,223.51z"/>
				<path class="st0" d="M214.99,231.44c-0.13-4.18-0.2-6.28-0.33-10.46c0.89,0,1.33,0,2.22-0.01c0.41,0,0.73,0.08,0.95,0.22
					c0.22,0.15,0.41,0.42,0.57,0.8c0.15,0.38,0.24,0.85,0.27,1.4c0.02,0.49,0,0.91-0.09,1.29c-0.08,0.38-0.21,0.71-0.38,0.99
					c-0.11,0.18-0.26,0.34-0.45,0.49c0.17,0.07,0.29,0.15,0.37,0.24c0.05,0.06,0.13,0.2,0.24,0.41s0.18,0.37,0.22,0.49
					c0.31,0.93,0.47,1.38,0.78,2.21c-0.6,0.36-0.9,0.52-1.52,0.82c-0.34-1-0.52-1.53-0.86-2.63c-0.11-0.36-0.2-0.59-0.28-0.68
					c-0.1-0.13-0.22-0.18-0.34-0.15c-0.05,0.01-0.07,0.02-0.12,0.03c0.06,1.62,0.1,2.43,0.16,4.05
					C215.83,231.18,215.55,231.27,214.99,231.44z M216.15,225.02c0.23-0.04,0.34-0.06,0.57-0.1c0.06-0.01,0.18-0.08,0.35-0.2
					c0.08-0.06,0.16-0.17,0.2-0.34c0.05-0.17,0.07-0.36,0.06-0.56c-0.01-0.3-0.07-0.53-0.17-0.69c-0.1-0.16-0.27-0.22-0.51-0.2
					c-0.24,0.02-0.35,0.03-0.59,0.05C216.1,223.8,216.12,224.21,216.15,225.02z"/>
				<path class="st0" d="M219.31,220.97c1.43,0,2.14,0,3.56,0c0.02,0.48,0.03,0.72,0.06,1.21c-0.88,0.16-1.32,0.24-2.2,0.38
					c0.03,0.47,0.04,0.71,0.07,1.18c0.82-0.22,1.22-0.34,2.02-0.6c0.02,0.47,0.03,0.71,0.06,1.18c-0.79,0.41-1.19,0.59-2,0.93
					c0.03,0.58,0.05,0.88,0.08,1.46c0.89-0.51,1.33-0.79,2.18-1.4c0.02,0.51,0.04,0.76,0.06,1.27c-1.32,1.26-2.01,1.8-3.45,2.7
					C219.58,225.94,219.49,224.29,219.31,220.97z"/>
			</g>
		</g>
	</g>
	<text transform="matrix(1.064 0 0 1 198.7908 219.7198)" class="st4 st2 st5">FOR</text>
</g>
<polygon class="st6" points="151.62,202.42 176.98,202.42 176.98,202.42 "/>
<rect x="203.07" y="205.77" class="st6" width="1.77" height="2.35"/>
</svg>
