<?xml version="1.0" encoding="UTF-8"?>
<svg id="Lag_1" data-name="Lag 1" xmlns="http://www.w3.org/2000/svg" viewBox="0 0 39.04 46.57">
  <defs>
    <style>
      .cls-1 {
        fill: #92234b;
        font-size: 12.8px;
      }

      .cls-1, .cls-2 {
        font-family: Arial-Black, 'Arial Black';
        font-weight: 800;
      }

      .cls-2 {
        fill: #ef84aa;
        font-size: 12.33px;
      }

      .cls-3 {
        fill: #edac44;
        stroke-width: 0px;
      }
    </style>
  </defs>
  <g>
    <path class="cls-3" d="m.8,7.13c1.62-1.38,2.47-1.99,4.23-3.03.69,3.43,1.05,5.28,1.79,9.21.67-4.2,1-6.41,1.65-10.97,1.83-.79,2.76-1.1,4.66-1.55.07,7.63.11,11.45.18,19.08-1.16,0-1.74,0-2.9-.01-.06-5.55-.09-8.33-.15-13.88-.83,5.79-1.24,8.6-2.08,13.87-1.05,0-1.57,0-2.62,0-.91-4.88-1.36-7.15-2.17-11.21-.02,4.48-.03,6.72-.06,11.2-1.16,0-1.74,0-2.9,0,.15-5.08.23-7.61.38-12.69Z"/>
    <path class="cls-3" d="m22.63,16.64c-1.62-.04-2.42-.04-4.04-.04-.22,1.31-.33,1.97-.55,3.27-1.45,0-2.17,0-3.61-.01,1.66-7.73,2.51-11.84,4.28-19.84,1.6-.05,2.4-.02,3.99.16,1.73,8.08,2.56,12.18,4.2,19.73-1.48,0-2.22,0-3.71-.01-.22-1.3-.33-1.95-.56-3.26Zm-.72-4.29c-.5-2.86-.75-4.3-1.27-7.17-.52,2.84-.78,4.27-1.28,7.13,1.02,0,1.53,0,2.55.04Z"/>
    <path class="cls-3" d="m28.27,1.39c2.11.69,3.14,1.14,5.14,2.26.98.55,1.76,1.25,2.35,2.01.59.75,1.07,1.58,1.46,2.46.39.88.68,1.76.87,2.66.19.9.3,1.77.33,2.65.04,1.38-.06,2.41-.31,3.14-.25.73-.62,1.35-1.1,1.87-.48.52-1.01.9-1.57,1.08-.77.26-1.48.41-2.11.41-2.1,0-3.16-.01-5.26-.02.08-7.41.12-11.12.21-18.53Zm3.46,5.28c-.03,3.75-.05,5.62-.09,9.36.34.04.52.06.86.1.73.09,1.25.04,1.56-.15.31-.18.55-.54.72-1.05.17-.52.26-1.38.26-2.61,0-1.62-.19-2.81-.57-3.58-.38-.77-1-1.38-1.89-1.74-.34-.14-.51-.2-.86-.33Z"/>
  </g>
  <g>
    <path class="cls-3" d="m.39,30.17c1.03,0,1.54,0,2.57,0,.26,2.47.38,3.8.62,6.61.53-2.48.81-3.81,1.36-6.62,1.03,0,1.54,0,2.57,0-.26,5.24-.39,7.86-.65,13.11-.65-.35-.97-.54-1.6-.93.2-3.71.3-5.57.5-9.28-.69,3.64-1.04,5.35-1.71,8.48-.57-.39-.84-.6-1.4-1.03-.29-3.52-.44-5.15-.77-8.11-.16,2.87-.23,4.3-.39,7.17C.88,39.06.58,38.79,0,38.24c.15-3.23.23-4.84.39-8.06Z"/>
    <path class="cls-3" d="m8.83,30.16c.78,0,1.18,0,1.96,0-.23,5.87-.34,8.8-.57,14.67-.82-.31-1.22-.49-2.03-.87.25-5.52.38-8.28.63-13.8Z"/>
    <path class="cls-3" d="m12.21,30.15c.73,0,1.1,0,1.83,0,.87,3.48,1.32,5.3,2.26,8.96.05-3.59.08-5.38.13-8.96.74,0,1.11,0,1.84,0-.04,6.56-.06,9.84-.09,16.4-.79-.04-1.19-.08-1.98-.19-.97-3.69-1.43-5.54-2.32-9.1-.09,3.46-.13,5.18-.22,8.64-.78-.18-1.17-.29-1.95-.54.2-6.08.3-9.11.5-15.19Z"/>
    <path class="cls-3" d="m19.59,30.13c1.16,0,1.74,0,2.91,0,.57,0,1.04.2,1.4.59.36.39.67.95.92,1.67.25.72.44,1.55.57,2.5.13.95.21,1.96.24,3.03.05,1.68,0,2.99-.14,3.95-.14.96-.34,1.78-.62,2.47-.27.69-.58,1.17-.91,1.44-.45.37-.87.58-1.24.62-1.25.15-1.87.19-3.13.19,0-6.58,0-9.86,0-16.44Zm1.99,3.7c.03,3.58.05,5.36.09,8.94.2-.01.3-.02.51-.04.43-.04.74-.19.92-.44.18-.25.31-.67.41-1.26.09-.59.13-1.52.1-2.81-.03-1.71-.17-2.87-.4-3.49-.23-.62-.61-.93-1.12-.91-.2,0-.3,0-.5.01Z"/>
    <path class="cls-3" d="m26.95,45.5c-.19-6.15-.29-9.23-.49-15.38,1.3,0,1.96,0,3.26,0,.6,0,1.07.11,1.4.33.33.22.61.61.83,1.18.23.57.36,1.25.4,2.07.04.71,0,1.34-.13,1.9-.12.56-.31,1.04-.56,1.45-.16.26-.38.5-.67.73.24.1.42.22.54.35.08.09.19.29.35.6s.26.54.32.72c.46,1.37.69,2.03,1.14,3.26-.88.53-1.33.77-2.23,1.2-.51-1.48-.76-2.25-1.26-3.87-.16-.52-.3-.86-.41-1-.15-.18-.32-.26-.5-.21-.07.02-.11.03-.18.04.09,2.38.14,3.58.24,5.96-.82.32-1.23.46-2.06.7Zm1.71-9.44c.34-.05.5-.08.84-.14.09-.02.26-.11.52-.29.13-.08.23-.25.3-.5.07-.25.1-.52.09-.83-.02-.45-.1-.79-.24-1.01-.14-.23-.39-.33-.75-.29-.35.03-.52.05-.87.07.05,1.19.07,1.79.12,2.99Z"/>
    <path class="cls-3" d="m33.32,30.1c2.1,0,3.15,0,5.24,0,.03.71.05,1.06.08,1.77-1.29.24-1.94.35-3.24.55.04.69.06,1.04.1,1.73,1.2-.32,1.8-.5,2.97-.89.03.69.05,1.04.08,1.74-1.16.6-1.74.87-2.94,1.37.05.86.07,1.29.12,2.15,1.31-.75,1.95-1.16,3.21-2.06.04.75.05,1.12.09,1.86-1.94,1.85-2.96,2.64-5.07,3.98-.26-4.88-.39-7.32-.66-12.2Z"/>
  </g>
  <text class="cls-1" transform="translate(5.28 29.94) scale(1.03 1)"><tspan x="0" y="0">FOR</tspan></text>
  <text class="cls-2" transform="translate(6.25 28.56)"><tspan x="0" y="0">FOR</tspan></text>
</svg>